<svg xmlns="http://www.w3.org/2000/svg" width="12.554" height="12.554" viewBox="0 0 12.554 12.554">
  <path id="Icon_awesome-phone-alt" data-name="Icon awesome-phone-alt" d="M12.2,8.872,9.45,7.695a.588.588,0,0,0-.687.169L7.547,9.35A9.089,9.089,0,0,1,3.2,5.005L4.688,3.789A.587.587,0,0,0,4.857,3.1L3.68.356A.592.592,0,0,0,3.006.015L.456.6A.588.588,0,0,0,0,1.177,11.376,11.376,0,0,0,11.377,12.555a.588.588,0,0,0,.574-.456l.588-2.55A.6.6,0,0,0,12.2,8.872Z" transform="translate(0 0)" fill="#fff"/>
</svg>
