<svg xmlns="http://www.w3.org/2000/svg" width="14.733" height="14.733" viewBox="0 0 14.733 14.733">
  <path id="Icon_ionic-logo-linkedin" data-name="Icon ionic-logo-linkedin" d="M18.055,4.5H5.759A1.2,1.2,0,0,0,4.5,5.647V17.97a1.3,1.3,0,0,0,1.259,1.263H18.051a1.231,1.231,0,0,0,1.182-1.263V5.647A1.13,1.13,0,0,0,18.055,4.5ZM9.067,16.78H6.956V10.218H9.067ZM8.084,9.22H8.069A1.083,1.083,0,0,1,6.956,8.088,1.09,1.09,0,0,1,8.1,6.956,1.087,1.087,0,0,1,9.224,8.088,1.09,1.09,0,0,1,8.084,9.22Zm8.7,7.56H14.67V13.192c0-.86-.307-1.447-1.071-1.447a1.155,1.155,0,0,0-1.082.779,1.421,1.421,0,0,0-.073.518V16.78H10.333V10.218h2.111v.913a2.137,2.137,0,0,1,1.9-1.067c1.385,0,2.433.913,2.433,2.882V16.78Z" transform="translate(-4.5 -4.5)" fill="#fff"/>
</svg>
