<svg xmlns="http://www.w3.org/2000/svg" width="15.701" height="10.973" viewBox="0 0 15.701 10.973">
  <path id="Icon_simple-youtube" data-name="Icon simple-youtube" d="M15.38,7.118a1.968,1.968,0,0,0-1.366-1.366,47.152,47.152,0,0,0-6.149-.328,46.1,46.1,0,0,0-6.149.328A1.968,1.968,0,0,0,.349,7.118a20.449,20.449,0,0,0-.342,3.8A20.449,20.449,0,0,0,.349,14.7a1.968,1.968,0,0,0,1.366,1.366,47.049,47.049,0,0,0,6.149.329,47.161,47.161,0,0,0,6.149-.329A1.968,1.968,0,0,0,15.38,14.7a20.449,20.449,0,0,0,.327-3.785A20.449,20.449,0,0,0,15.38,7.118ZM6.293,13.267V8.56l4.1,2.357Z" transform="translate(-0.007 -5.424)" fill="#fff"/>
</svg>
